<mxfile host="app.diagrams.net" agent="Mozilla/5.0 (Windows NT 10.0; Win64; x64) AppleWebKit/537.36 (KHTML, like Gecko) Chrome/131.0.0.0 Safari/537.36" version="26.0.4">
  <diagram name="Page-1" id="eQFPlUGm4qAcGJg_SKan">
    <mxGraphModel dx="1688" dy="647" grid="0" gridSize="10" guides="1" tooltips="1" connect="1" arrows="1" fold="1" page="1" pageScale="1" pageWidth="827" pageHeight="1169" math="0" shadow="0">
      <root>
        <mxCell id="0" />
        <mxCell id="1" parent="0" />
        <mxCell id="40Mt-OX8lxxY8RQej_NW-3" style="edgeStyle=orthogonalEdgeStyle;rounded=0;orthogonalLoop=1;jettySize=auto;html=1;exitX=0.5;exitY=1;exitDx=0;exitDy=0;entryX=0.5;entryY=0;entryDx=0;entryDy=0;" edge="1" parent="1" source="40Mt-OX8lxxY8RQej_NW-1" target="40Mt-OX8lxxY8RQej_NW-4">
          <mxGeometry relative="1" as="geometry">
            <mxPoint x="414" y="360" as="targetPoint" />
          </mxGeometry>
        </mxCell>
        <mxCell id="40Mt-OX8lxxY8RQej_NW-1" value="Start" style="rounded=0;whiteSpace=wrap;html=1;fillColor=#dae8fc;strokeColor=#6c8ebf;" vertex="1" parent="1">
          <mxGeometry x="370" y="280" width="90" height="40" as="geometry" />
        </mxCell>
        <mxCell id="40Mt-OX8lxxY8RQej_NW-9" style="edgeStyle=orthogonalEdgeStyle;rounded=0;orthogonalLoop=1;jettySize=auto;html=1;exitX=0.5;exitY=1;exitDx=0;exitDy=0;entryX=0.5;entryY=0;entryDx=0;entryDy=0;" edge="1" parent="1" source="40Mt-OX8lxxY8RQej_NW-4" target="40Mt-OX8lxxY8RQej_NW-7">
          <mxGeometry relative="1" as="geometry" />
        </mxCell>
        <mxCell id="40Mt-OX8lxxY8RQej_NW-10" style="edgeStyle=orthogonalEdgeStyle;rounded=0;orthogonalLoop=1;jettySize=auto;html=1;exitX=0.5;exitY=1;exitDx=0;exitDy=0;entryX=0.5;entryY=0;entryDx=0;entryDy=0;" edge="1" parent="1" source="40Mt-OX8lxxY8RQej_NW-4" target="40Mt-OX8lxxY8RQej_NW-8">
          <mxGeometry relative="1" as="geometry" />
        </mxCell>
        <mxCell id="40Mt-OX8lxxY8RQej_NW-4" value="EDA Step" style="rounded=0;whiteSpace=wrap;html=1;fillColor=#dae8fc;strokeColor=#6c8ebf;" vertex="1" parent="1">
          <mxGeometry x="370" y="360" width="90" height="40" as="geometry" />
        </mxCell>
        <mxCell id="40Mt-OX8lxxY8RQej_NW-5" value="Check correlation&lt;div&gt;&amp;amp;&lt;/div&gt;&lt;div&gt;Drop below threshold&lt;/div&gt;" style="ellipse;whiteSpace=wrap;html=1;fillColor=#d5e8d4;strokeColor=#82b366;" vertex="1" parent="1">
          <mxGeometry x="480" y="340" width="140" height="80" as="geometry" />
        </mxCell>
        <mxCell id="40Mt-OX8lxxY8RQej_NW-15" style="edgeStyle=orthogonalEdgeStyle;rounded=0;orthogonalLoop=1;jettySize=auto;html=1;exitX=0.5;exitY=1;exitDx=0;exitDy=0;entryX=0.5;entryY=0;entryDx=0;entryDy=0;" edge="1" parent="1" source="40Mt-OX8lxxY8RQej_NW-7" target="40Mt-OX8lxxY8RQej_NW-14">
          <mxGeometry relative="1" as="geometry" />
        </mxCell>
        <mxCell id="40Mt-OX8lxxY8RQej_NW-7" value="Regression" style="rounded=0;whiteSpace=wrap;html=1;fillColor=#dae8fc;strokeColor=#6c8ebf;" vertex="1" parent="1">
          <mxGeometry x="270" y="440" width="80" height="40" as="geometry" />
        </mxCell>
        <mxCell id="40Mt-OX8lxxY8RQej_NW-16" style="edgeStyle=orthogonalEdgeStyle;rounded=0;orthogonalLoop=1;jettySize=auto;html=1;exitX=0.5;exitY=1;exitDx=0;exitDy=0;entryX=0.5;entryY=0;entryDx=0;entryDy=0;" edge="1" parent="1" source="40Mt-OX8lxxY8RQej_NW-8" target="40Mt-OX8lxxY8RQej_NW-14">
          <mxGeometry relative="1" as="geometry" />
        </mxCell>
        <mxCell id="40Mt-OX8lxxY8RQej_NW-8" value="Classification" style="rounded=0;whiteSpace=wrap;html=1;fillColor=#dae8fc;strokeColor=#6c8ebf;" vertex="1" parent="1">
          <mxGeometry x="480" y="440" width="80" height="40" as="geometry" />
        </mxCell>
        <mxCell id="40Mt-OX8lxxY8RQej_NW-11" value="Combine &#39;Plant Type&#39; +&amp;nbsp;&lt;div&gt;&#39;Plant Stage&#39;&lt;/div&gt;" style="ellipse;whiteSpace=wrap;html=1;fillColor=#d5e8d4;strokeColor=#82b366;" vertex="1" parent="1">
          <mxGeometry x="570" y="420" width="140" height="80" as="geometry" />
        </mxCell>
        <mxCell id="40Mt-OX8lxxY8RQej_NW-19" style="edgeStyle=orthogonalEdgeStyle;rounded=0;orthogonalLoop=1;jettySize=auto;html=1;exitX=0.5;exitY=1;exitDx=0;exitDy=0;entryX=0.5;entryY=0;entryDx=0;entryDy=0;" edge="1" parent="1" source="40Mt-OX8lxxY8RQej_NW-14" target="40Mt-OX8lxxY8RQej_NW-18">
          <mxGeometry relative="1" as="geometry" />
        </mxCell>
        <mxCell id="40Mt-OX8lxxY8RQej_NW-14" value="Best model&lt;div&gt;parameters&lt;/div&gt;" style="rounded=0;whiteSpace=wrap;html=1;fillColor=#dae8fc;strokeColor=#6c8ebf;" vertex="1" parent="1">
          <mxGeometry x="370" y="520" width="90" height="40" as="geometry" />
        </mxCell>
        <mxCell id="40Mt-OX8lxxY8RQej_NW-21" style="edgeStyle=orthogonalEdgeStyle;rounded=0;orthogonalLoop=1;jettySize=auto;html=1;exitX=0.5;exitY=1;exitDx=0;exitDy=0;entryX=0.5;entryY=0;entryDx=0;entryDy=0;" edge="1" parent="1" source="40Mt-OX8lxxY8RQej_NW-18" target="40Mt-OX8lxxY8RQej_NW-20">
          <mxGeometry relative="1" as="geometry" />
        </mxCell>
        <mxCell id="40Mt-OX8lxxY8RQej_NW-18" value="Model Evaluation" style="rounded=0;whiteSpace=wrap;html=1;fillColor=#dae8fc;strokeColor=#6c8ebf;" vertex="1" parent="1">
          <mxGeometry x="370" y="600" width="90" height="40" as="geometry" />
        </mxCell>
        <mxCell id="40Mt-OX8lxxY8RQej_NW-20" value="End" style="rounded=0;whiteSpace=wrap;html=1;fillColor=#dae8fc;strokeColor=#6c8ebf;" vertex="1" parent="1">
          <mxGeometry x="370" y="680" width="90" height="40" as="geometry" />
        </mxCell>
      </root>
    </mxGraphModel>
  </diagram>
</mxfile>
